<svg preserveAspectRatio="xMidYMid meet" data-bbox="-0.01 0 384.31 310.47" viewBox="-0.01 0 384.31 310.47" xmlns="http://www.w3.org/2000/svg" data-type="color" role="img" aria-label="big numbers one and four with a mountain and soccer ball infront">
    <g>
        <path d="m354.24 0-.07 144.73h30.13v56.55h-30.09l-.08 78.3-.09 30.67h-94.41c.88-2.7 3.05-4.14 5.09-5.47 1.42-.92 2.77-1.29 4.43-1.65 2.14-.45 3.62-2.35 5.01-3.84 1.25-1.32 2.06-2.53 2.47-4.32.51-2.18.7-4.26.2-6.49l-1.92-8.34c-.16-.72.32-1.33 1.04-1.38 2.87-.19 6.82 3.3 8.67 5.31 1.09 1.2 2.3 1.99 3.87 2.43 2.73.77 5.29 1.78 7.95 2.73 1.36.48 2.85-.6 2.95-1.95.24-3.15.24-6.18.11-9.35-.15-3.4-.89-6.56-2.17-9.67-2.09-5.05-.03-7.51-1.86-12.3-.59-1.52-1.26-3.13-1.42-4.77-.36-3.51 1.29-7.15 1.28-8.92 0-.4.2-.68.4-.77.32-.15.65-.21.98.04l14.6 10.93c4.97 3.72 9 2.55 17.82 8.4 2.34 1.56 4.79 2.62 7.11 4.11l5.76 3.68c2.11 1.36 4.36 2.39 6.92 2.71L296 231.21l-18.91 10.81-.05-40.85-48.74.03 45.03 42.84-57.68 34.78-55.43 31.31c-.27.15-.4.16-.51.15-.13-.03-.27-.24-.13-.47l6.78-11.38c.82-1.38 1.64-2.59 2.1-4.18 1.1-3.8 1.72-7.77 1.36-11.77-.43-4.68-4.73-6.7-6.04-13.7-.21-1.14-.4-2.34-.81-3.43-.63-1.62-1.38-3.13-1.64-4.89-.52-3.62-.77-7.19-.53-10.84.11-1.65.65-3.23 1.49-4.55s2.27-1.68 3.68-1.13l13.05 5.12c.76.29 1.44.64 2.11 1.06l12.5 7.9c.8.51 1.6 1.08 2.5 1.28 4.96 1.12 9.22 3.48 13.11 6.69 1.41 1.16 3.19 1.65 4.55 3.01.25 0 .35-.2.31-.44l-.53-3.31c-.48-3.02-1.97-5.52-3.68-7.97-1.36-1.93-2.41-7.43-4.52-11.02s-6.25-7.14-6.84-10.13l-1.26-6.4c-.28-1.41-.8-5.72.69-6.36.52-.21 1.24-.19 1.7.19 1.73 1.33 3.35 2.73 4.92 4.24 1.73 1.66 3.62 2.91 5.48 4.39 3.28 2.62 4.57 6.08 9.36 7.26 2.39.59 4.67 1.57 6.7 2.93.4.28.77.41 1.18.28.37-.12.8-.57.78-1.1-.05-2.53-.69-5-1.34-7.38s-2.15-3.51-3.6-5.23c-3.94-4.61-7.23-9.65-10.72-14.6-2.65-3.75.86-10.29-6.26-17.02-1.41-1.33-2.27-3.11-2.99-4.88-2.14-5.27-2.42-11.04-2.73-16.52l11.32 10.32 14.95 14.3c-.19-35.95-24.36-66.31-58.85-75.26L248.42.03H354.3l-.07-.03ZM276.8 144.73l-.05-49.35-31.8 49.32zm93.98 45.73c4.31-1.5 6.3-6.01 4.39-10.01-2.53-5.29-14.16-3.68-14.64-7.89-.12-1.08.23-2.1 1.13-2.77 2.97-2.17 8.47-1.01 11.61.84.55-1.32 1.08-2.38 1.49-3.83-4.32-2.41-9.61-2.97-14.22-1.28-4.23 1.56-6.13 6.24-4.06 10.15.9 1.72 2.67 2.78 4.48 3.28l7.01 1.92c1.02.28 2.07.77 2.69 1.66.56.8.53 1.85.08 2.7-.35.64-1.12 1.32-2.05 1.58-4.11 1.17-8.36.07-11.92-2.33l-1.66 3.74c3.95 3.11 10.88 3.91 15.65 2.23h.01Zm-48.06-10.74-.03-3.96-12.47-.04.08-6.68 14-.04v-4.03l-18.95-.03v25.99h19.47v-4.04l-14.62-.05.09-7.05 12.42-.05Zm29.59 11.1-5.81-8.38c3.58-1.42 5.45-4.51 5.48-8.15s-1.95-7.02-5.53-8.36c-1.56-.64-3.24-.96-5-.96h-11.24v25.92h4.83l.04-7.47h6.81l5.31 7.54 5.11-.12h.01Z" fill="#21614f" data-color="1"></path>
        <path d="m129.9.23.2 125.18c-33.54 8.55-57.64 38.22-58.54 73.24-.23 8.55 1.04 16.97 3.44 25.19l-31.08 25.11V65.14l-43.93-.08V.23h129.9Z" fill="#21614f" data-color="1"></path>
        <path d="M105.71 227.75c1.53 1.28 3.18 2.65 4.68 3.94l16.32 13.94c.33.28.59.45.94.44l-31.73 29.99-25.71 24.1L59 310.47h-.92c-.27-.39-.65-.93-.33-1.52l8.64-16c2.74-3.98 8.64-9.52 10.21-13.76 1.99-5.41 3.42-10 8.87-13.1 2.47-2.5 5.08-5.61 5.29-9.26.09-1.64.61-3.01 1.16-4.51 2.51-6.84-8.19-20.13-5.29-23.91 2.01-2.63 3.26-5.67 2.79-9.03l-.81-5.8 17.06 14.18h.03Z" fill="#21614f" data-color="1"></path>
        <path d="M167.82 125.22c34.48 8.94 58.65 39.31 58.85 75.26l-14.95-14.3 6.13-8.62c-4.79-14.34-13.9-26.8-26.21-35.69l-17.87 5.82c-4.36 1.42-7.47 4.95-8.64 9.32l-3.1 11.04c-1.1 3.95-.53 8.13 1.89 11.46l9.52 13.11c1.2 1.65 2.71 2.91 4.42 3.79l-30.06 29.67c-.12-.21-.35-.32-.65-.43l-13.39-4.32c-3.94-1.26-8.11-.51-11.52 1.81l-10 6.8c-.74.51-1.38 1.06-1.84 1.72-1.52-1.29-3.15-2.66-4.68-3.94.96-.23 1.9-.7 2.79-1.32l10.05-6.78c3.54-2.38 5.98-6.24 5.98-10.6V192.2c0-4.07-2.1-7.79-5.32-10.15l-10-7.3c-3.51-2.45-7.79-3.22-11.9-1.88l-17.37 5.65c-4.19 13.6-4.65 28.3-.56 41.73-1.49 1.06-2.67 2.74-4.39 3.54-2.41-8.22-3.67-16.64-3.44-25.19.9-35.03 25-64.68 58.54-73.24 12.18-3.1 25.51-3.36 37.72-.2v.04Zm-18.94 49.76c4.38-1.42 7.41-4.91 8.62-9.22l3.48-12.43c.96-3.99.17-7.98-2.23-11.29l-10.12-13.92a73 73 0 0 0-41.92 13.64l.04 18.8c0 4.19 2.26 7.83 5.53 10.27l9.61 6.97c3.44 2.5 7.79 3.4 11.88 2.07l15.13-4.92-.03.03Z" fill="#21614f" data-color="1"></path>
        <path d="M345.98 177.54c-2.41 2.67-7.42 1.65-10.89 1.86v-10.31l6.6.03c1.5 0 3.13.55 4.16 1.68 1.66 1.84 1.61 4.72.12 6.74z" fill="#21614f" data-color="1"></path>
    </g>
</svg>